<?xml version="1.0" encoding="UTF-8"?>
<svg width="5px" height="8px" viewBox="0 0 5 8" version="1.1" xmlns="http://www.w3.org/2000/svg" xmlns:xlink="http://www.w3.org/1999/xlink">
    <!-- Generator: Sketch 50.2 (55047) - http://www.bohemiancoding.com/sketch -->
    <title>Shape Copy 9</title>
    <desc>Created with Sketch.</desc>
    <defs></defs>
    <g id="Page-1" stroke="none" stroke-width="1" fill="none" fill-rule="evenodd">
        <g id="Dashboard-filter" transform="translate(-1053.000000, -400.000000)" fill="#000000" fill-rule="nonzero">
            <g id="Group-4" transform="translate(847.000000, 385.000000)">
                <path d="M210.930323,18.8431372 L206.252903,15.033521 C206.203387,14.9933296 206.139194,14.989139 206.08629,15.0217112 C206.033226,15.0546644 206,15.1194279 206,15.1902867 L206,22.8095192 C206,22.8803781 206.033226,22.945332 206.08629,22.9782852 C206.109839,22.9927617 206.135645,23 206.16129,23 C206.193387,23 206.225323,22.9885712 206.252903,22.9662849 L210.930323,19.1566687 C210.974032,19.1210487 211,19.0625711 211,18.999903 C211,18.9372348 210.973871,18.8787572 210.930323,18.8431372 Z" id="Shape-Copy-9" transform="translate(208.500000, 19.000000) rotate(-180.000000) translate(-208.500000, -19.000000) "></path>
            </g>
        </g>
    </g>
</svg>