<?xml version="1.0" encoding="UTF-8"?>
<svg width="20px" height="20px" viewBox="0 0 20 20" version="1.1" xmlns="http://www.w3.org/2000/svg" xmlns:xlink="http://www.w3.org/1999/xlink">
    <!-- Generator: Sketch 50.2 (55047) - http://www.bohemiancoding.com/sketch -->
    <title>Shape</title>
    <desc>Created with Sketch.</desc>
    <defs></defs>
    <g id="Page-1" stroke="none" stroke-width="1" fill="none" fill-rule="evenodd">
        <g id="Dashboard---new-run" transform="translate(-950.000000, -65.000000)" fill="#FFFFFF" fill-rule="nonzero">
            <g id="Group-4-Copy-4" transform="translate(470.000000, 65.000000)">
                <g id="close" transform="translate(480.000000, 0.000000)">
                    <path d="M11.768777,10.0002085 L19.6335286,2.13512894 C20.1221571,1.64689695 20.1221571,0.854718672 19.6335286,0.366486689 C19.1449,-0.12216223 18.3535886,-0.12216223 17.8649601,0.366486689 L10.0002085,8.23156622 L2.13503992,0.366486689 C1.64641137,-0.12216223 0.855099956,-0.12216223 0.36647141,0.366486689 C-0.122157137,0.854718672 -0.122157137,1.64689695 0.36647141,2.13512894 L8.23163995,10.0002085 L0.36647141,17.865288 C-0.122157137,18.35352 -0.122157137,19.1456983 0.36647141,19.6339302 C0.610785683,19.8778378 0.930979133,20 1.25075566,20 C1.5705322,20 1.89072565,19.8778378 2.13503992,19.6335133 L10.0002085,11.7684338 L17.8649601,19.6335133 C18.1092744,19.8778378 18.4294678,20 18.7492443,20 C19.0690209,20 19.3892143,19.8778378 19.6335286,19.6335133 C20.1221571,19.1452813 20.1221571,18.353103 19.6335286,17.8648711 L11.768777,10.0002085 Z" id="Shape"></path>
                </g>
            </g>
        </g>
    </g>
</svg>