<?xml version="1.0" encoding="UTF-8"?>
<svg width="11px" height="15px" viewBox="0 0 11 15" version="1.1" xmlns="http://www.w3.org/2000/svg" xmlns:xlink="http://www.w3.org/1999/xlink">
    <!-- Generator: Sketch 50.2 (55047) - http://www.bohemiancoding.com/sketch -->
    <title>Shape</title>
    <desc>Created with Sketch.</desc>
    <defs></defs>
    <g id="Page-1" stroke="none" stroke-width="1" fill="none" fill-rule="evenodd">
        <g id="Login" transform="translate(-600.000000, -341.000000)" fill="#10A950" fill-rule="nonzero">
            <g id="Group" transform="translate(530.000000, 110.000000)">
                <g id="Password-input" transform="translate(50.000000, 216.000000)">
                    <path d="M30.6944349,20.625 L29.7777682,20.625 L29.7777682,19.3749902 C29.7777682,16.9625977 27.8588125,15 25.5,15 C23.1411875,15 21.2222318,16.9625977 21.2222318,19.3749902 L21.2222318,20.625 L20.3055651,20.625 C20.1366693,20.625 20,20.7647754 20,20.9375098 L20,28.7500195 C20,29.4394043 20.548138,30 21.2222318,30 L29.7777969,30 C30.451862,30 31,29.4394043 31,28.7499902 L31,20.9375098 C31,20.7647754 30.8633307,20.625 30.6944349,20.625 Z M26.4148906,27.1530176 C26.4244297,27.2412012 26.3967005,27.329707 26.3388073,27.3959473 C26.2809141,27.4621582 26.1979557,27.5000098 26.1111302,27.5000098 L24.8888984,27.5000098 C24.8020729,27.5000098 24.7191146,27.4621582 24.6612214,27.3959473 C24.6033281,27.3297363 24.5755703,27.2412305 24.585138,27.1530176 L24.7778958,25.3802637 C24.4648828,25.1474121 24.2777969,24.7790625 24.2777969,24.375 C24.2777969,23.6856152 24.8259349,23.1249902 25.5000286,23.1249902 C26.1741224,23.1249902 26.7222604,23.6855859 26.7222604,24.375 C26.7222604,24.7790625 26.5351745,25.1474121 26.2221615,25.3802637 L26.4148906,27.1530176 Z M27.9444349,20.625 L23.0555651,20.625 L23.0555651,19.3749902 C23.0555651,17.9965137 24.1521563,16.875 25.5,16.875 C26.8478438,16.875 27.9444349,17.9965137 27.9444349,19.3749902 L27.9444349,20.625 Z" id="Shape"></path>
                </g>
            </g>
        </g>
    </g>
</svg>