<?xml version="1.0" encoding="UTF-8"?>
<svg width="17px" height="17px" viewBox="0 0 17 17" version="1.1" xmlns="http://www.w3.org/2000/svg" xmlns:xlink="http://www.w3.org/1999/xlink">
    <!-- Generator: Sketch 50.2 (55047) - http://www.bohemiancoding.com/sketch -->
    <title>search</title>
    <desc>Created with Sketch.</desc>
    <defs></defs>
    <g id="Page-1" stroke="none" stroke-width="1" fill="none" fill-rule="evenodd">
        <g id="Dashboard-filter" transform="translate(-268.000000, -273.000000)" fill="#78909C" fill-rule="nonzero" stroke="#78909C" stroke-width="0.5">
            <g id="Group-3-Copy" transform="translate(110.000000, 253.000000)">
                <path d="M173.816327,34.9346939 L170.210204,31.3285714 C171.104082,30.2387755 171.642857,28.8428571 171.642857,27.3214286 C171.642857,23.8316327 168.811224,21 165.321429,21 C161.828571,21 159,23.8316327 159,27.3214286 C159,30.8112245 161.828571,33.6428571 165.321429,33.6428571 C166.842857,33.6428571 168.235714,33.1071429 169.32551,32.2132653 L172.931633,35.8163265 C173.176531,36.0612245 173.571429,36.0612245 173.816327,35.8163265 C174.061224,35.5744898 174.061224,35.1765306 173.816327,34.9346939 Z M165.321429,32.3846939 C162.526531,32.3846939 160.255102,30.1132653 160.255102,27.3214286 C160.255102,24.5295918 162.526531,22.255102 165.321429,22.255102 C168.113265,22.255102 170.387755,24.5295918 170.387755,27.3214286 C170.387755,30.1132653 168.113265,32.3846939 165.321429,32.3846939 Z" id="search"></path>
            </g>
        </g>
    </g>
</svg>