<?xml version="1.0" encoding="UTF-8"?>
<svg width="10px" height="10px" viewBox="0 0 10 10" version="1.1" xmlns="http://www.w3.org/2000/svg" xmlns:xlink="http://www.w3.org/1999/xlink">
    <!-- Generator: Sketch 50.2 (55047) - http://www.bohemiancoding.com/sketch -->
    <title>Shape</title>
    <desc>Created with Sketch.</desc>
    <defs></defs>
    <g id="Page-1" stroke="none" stroke-width="1" fill="none" fill-rule="evenodd">
        <g id="Dashboard---new-run" transform="translate(-950.000000, -65.000000)" fill="#78909C" fill-rule="nonzero">
            <g id="Group-4-Copy-4" transform="translate(470.000000, 65.000000)">
                <g id="close" transform="translate(480.000000, 0.000000)">
                    <path d="M5.88438848,5.00010423 L9.8167643,1.06756447 C10.0610786,0.823448477 10.0610786,0.427359336 9.8167643,0.183243345 C9.57245002,-0.0610811149 9.17679431,-0.0610811149 8.93248004,0.183243345 L5.00010423,4.11578311 L1.06751996,0.183243345 C0.823205687,-0.0610811149 0.427549978,-0.0610811149 0.183235705,0.183243345 C-0.0610785683,0.427359336 -0.0610785683,0.823448477 0.183235705,1.06756447 L4.11581997,5.00010423 L0.183235705,8.932644 C-0.0610785683,9.17675999 -0.0610785683,9.57284913 0.183235705,9.81696512 C0.305392842,9.93891889 0.465489567,10 0.625377832,10 C0.785266098,10 0.945362823,9.93891889 1.06751996,9.81675666 L5.00010423,5.88421689 L8.93248004,9.81675666 C9.05463718,9.93891889 9.2147339,10 9.37462217,10 C9.53451043,10 9.69460716,9.93891889 9.8167643,9.81675666 C10.0610786,9.57264066 10.0610786,9.17655152 9.8167643,8.93243553 L5.88438848,5.00010423 Z" id="Shape"></path>
                </g>
            </g>
        </g>
    </g>
</svg>