<?xml version="1.0" encoding="UTF-8"?>
<svg width="15px" height="15px" viewBox="0 0 15 15" version="1.1" xmlns="http://www.w3.org/2000/svg" xmlns:xlink="http://www.w3.org/1999/xlink">
    <!-- Generator: Sketch 50.2 (55047) - http://www.bohemiancoding.com/sketch -->
    <title>Shape</title>
    <desc>Created with Sketch.</desc>
    <defs></defs>
    <g id="Page-1" stroke="none" stroke-width="1" fill="none" fill-rule="evenodd">
        <g id="Login" transform="translate(-598.000000, -280.000000)" fill="#A2B2C2" fill-rule="nonzero">
            <g id="Group" transform="translate(530.000000, 110.000000)">
                <g id="Login_input" transform="translate(50.000000, 156.000000)">
                    <path d="M30.1677469,24.2957691 L29.2317284,24.2957691 C28.1979321,24.2957691 27.3597222,23.4575592 27.3597222,22.4237321 L27.3597222,21.822374 C27.773858,21.3301518 28.0708951,20.7479296 28.2555247,20.1327135 C28.2746914,20.0290098 28.3745062,19.9777753 28.4410802,19.906479 C28.7994444,19.5481765 28.8699074,18.943516 28.6011111,18.5129913 C28.5645062,18.4476518 28.4985802,18.3909851 28.5023148,18.3100284 C28.5023148,17.7611395 28.5050617,17.2113864 28.5016049,16.6629296 C28.4869136,16.0007382 28.2976543,15.3119111 27.8333951,14.8215716 C27.4585802,14.4253987 26.9439198,14.1895037 26.412963,14.0885469 C25.7420062,13.960553 25.0400617,13.9670345 24.3755247,14.1360777 C23.7996296,14.2814172 23.2585802,14.6187012 22.9240432,15.1186703 C22.6278086,15.5533308 22.4980247,16.0811086 22.4761111,16.6012629 C22.4679012,17.1597197 22.4742284,17.7195654 22.4725309,18.2793802 C22.4852778,18.3914481 22.390216,18.4672814 22.347284,18.5600592 C22.0941049,19.0193493 22.2055556,19.6450901 22.6123765,19.9791333 C22.7155864,20.0503679 22.7349074,20.1802135 22.772284,20.292158 C22.9496914,20.8451518 23.2439506,21.3565716 23.6159568,21.8021888 L23.6159568,22.4237321 C23.6159568,23.4575592 22.7777778,24.2957691 21.7440123,24.2957691 L20.807963,24.2957691 C20.807963,24.2957691 19.1115432,24.7636086 18,27.1036395 L18,28.039658 C18,28.5569111 18.418642,28.9754913 18.9360185,28.9754913 L32.039784,28.9754913 C32.557037,28.9754913 32.9756481,28.5569111 32.9756481,28.039658 L32.9756481,27.1036395 C31.8641667,24.7637938 30.1677469,24.2957691 30.1677469,24.2957691 Z" id="Shape"></path>
                </g>
            </g>
        </g>
    </g>
</svg>