<?xml version="1.0" encoding="UTF-8"?>
<svg width="5px" height="8px" viewBox="0 0 5 8" version="1.1" xmlns="http://www.w3.org/2000/svg" xmlns:xlink="http://www.w3.org/1999/xlink">
    <!-- Generator: Sketch 50.2 (55047) - http://www.bohemiancoding.com/sketch -->
    <title>Shape Copy 7</title>
    <desc>Created with Sketch.</desc>
    <defs></defs>
    <g id="Page-1" stroke="none" stroke-width="1" fill="none" fill-rule="evenodd">
        <g id="Dashboard-filter" transform="translate(-1078.000000, -400.000000)" fill="#000000" fill-rule="nonzero">
            <g id="Group-4" transform="translate(847.000000, 385.000000)">
                <path d="M235.930323,18.8431372 L231.252903,15.033521 C231.203387,14.9933296 231.139194,14.989139 231.08629,15.0217112 C231.033226,15.0546644 231,15.1194279 231,15.1902867 L231,22.8095192 C231,22.8803781 231.033226,22.945332 231.08629,22.9782852 C231.109839,22.9927617 231.135645,23 231.16129,23 C231.193387,23 231.225323,22.9885712 231.252903,22.9662849 L235.930323,19.1566687 C235.974032,19.1210487 236,19.0625711 236,18.999903 C236,18.9372348 235.973871,18.8787572 235.930323,18.8431372 Z" id="Shape-Copy-7" transform="translate(233.500000, 19.000000) scale(-1, 1) rotate(-180.000000) translate(-233.500000, -19.000000) "></path>
            </g>
        </g>
    </g>
</svg>