<?xml version="1.0" encoding="UTF-8"?>
<svg width="80px" height="80px" viewBox="0 0 80 80" version="1.1" xmlns="http://www.w3.org/2000/svg" xmlns:xlink="http://www.w3.org/1999/xlink">
    <!-- Generator: sketchtool 50.2 (55047) - http://www.bohemiancoding.com/sketch -->
    <title>AF60C83D-A5AE-4B2F-80E8-B67CF03B70A7</title>
    <desc>Created with sketchtool.</desc>
    <defs>
        <linearGradient x1="50%" y1="0%" x2="50%" y2="100%" id="linearGradient-1">
            <stop stop-color="#FC879A" offset="0%"></stop>
            <stop stop-color="#F74F61" offset="100%"></stop>
        </linearGradient>
    </defs>
    <g id="Design" stroke="none" stroke-width="1" fill="none" fill-rule="evenodd">
        <g id="error" transform="translate(-680.000000, -150.000000)" fill="url(#linearGradient-1)" fill-rule="nonzero">
            <g id="Group-4-Copy-3" transform="translate(470.000000, 65.000000)">
                <path d="M250,85 C227.905939,85 210,102.884259 210,124.951568 C210,147.018877 227.905939,165 250,165 C272.094061,165 290,147.009216 290,125.048432 C290,102.981123 272.094061,85 250,85 Z M250,161.126864 C230.106588,161.126864 213.877832,144.917757 213.877832,125.048432 C213.877832,105.179108 230.106588,88.8634761 250,88.8634761 C269.893412,88.8634761 286.122168,105.072583 286.122168,125.048432 C286.122168,145.024281 269.893412,161.126864 250,161.126864 Z M251.987341,141.364064 C251.987341,142.516383 251.046932,143.455523 249.893346,143.455523 C248.73963,143.455523 247.799351,142.516253 247.799351,141.364064 C247.799351,140.211744 248.73976,139.272604 249.893346,139.272604 C251.046932,139.272604 251.987341,140.211874 251.987341,141.364064 Z M247.906005,131.109893 L247.906005,107.580481 C247.906005,106.534686 248.73976,105.70194 249.786823,105.70194 C250.833886,105.70194 251.667641,106.534686 251.667641,107.580481 L251.667641,131.109893 C251.667641,132.155688 250.833886,132.988434 249.786823,132.988434 C248.73976,133.104619 247.906005,132.155688 247.906005,131.109893 Z" id="Error-icon"></path>
            </g>
        </g>
    </g>
</svg>