<?xml version="1.0" encoding="UTF-8"?>
<svg width="9px" height="6px" viewBox="0 0 9 6" version="1.1" xmlns="http://www.w3.org/2000/svg" xmlns:xlink="http://www.w3.org/1999/xlink">
    <!-- Generator: Sketch 50.2 (55047) - http://www.bohemiancoding.com/sketch -->
    <title>Shape</title>
    <desc>Created with Sketch.</desc>
    <defs></defs>
    <g id="Symbols" stroke="none" stroke-width="1" fill="none" fill-rule="evenodd">
        <g id="Menu-/-Dashboard" transform="translate(-1281.000000, -24.000000)" fill="#000000" fill-rule="nonzero">
            <g id="Group-2" transform="translate(1208.000000, 16.000000)">
                <path d="M79.9303226,10.8431372 L75.2529032,7.03352101 C75.2033871,6.99332955 75.1391935,6.98913898 75.0862903,7.0217112 C75.0332258,7.05466438 75,7.11942785 75,7.19028671 L75,14.8095192 C75,14.8803781 75.0332258,14.945332 75.0862903,14.9782852 C75.1098387,14.9927617 75.1356452,15 75.1612903,15 C75.1933871,15 75.2253226,14.9885712 75.2529032,14.9662849 L79.9303226,11.1566687 C79.9740323,11.1210487 80,11.0625711 80,10.999903 C80,10.9372348 79.973871,10.8787572 79.9303226,10.8431372 Z" id="Shape" transform="translate(77.500000, 11.000000) rotate(-270.000000) translate(-77.500000, -11.000000) "></path>
            </g>
        </g>
    </g>
</svg>